<?xml version="1.0" standalone="no"?>
<!DOCTYPE svg PUBLIC "-//W3C//DTD SVG 20010904//EN"
 "http://www.w3.org/TR/2001/REC-SVG-20010904/DTD/svg10.dtd">
<svg version="1.0" xmlns="http://www.w3.org/2000/svg"
 width="512.000000pt" height="512.000000pt" viewBox="0 0 512.000000 512.000000"
 preserveAspectRatio="xMidYMid meet">

<g transform="translate(0.000000,512.000000) scale(0.100000,-0.100000)"
fill="#000000" stroke="none">
<path d="M2310 4699 c-878 -101 -1616 -745 -1834 -1601 -168 -656 -17 -1365
401 -1886 803 -1001 2298 -1086 3203 -182 567 568 776 1393 544 2156 -249 823
-968 1419 -1826 1513 -112 13 -379 12 -488 0z m54 -372 c111 -61 157 -150 138
-266 -15 -92 -59 -173 -154 -284 -46 -54 -106 -125 -134 -158 -123 -143 -168
-314 -129 -489 28 -128 16 -212 -40 -286 l-25 -33 -37 16 c-74 31 -192 -1
-273 -73 -33 -29 -41 -32 -125 -36 -127 -7 -251 -60 -372 -160 -140 -116 -243
57 -244 407 -1 241 80 476 239 699 115 161 383 416 549 522 114 73 274 144
398 178 11 2 49 3 84 1 48 -3 78 -13 125 -38z m901 -712 c9 -55 20 -104 25
-109 7 -7 26 6 55 34 52 51 59 46 15 -10 -52 -65 -46 -70 81 -70 60 0 108 -4
105 -8 -3 -5 -51 -15 -106 -22 -55 -7 -103 -17 -106 -22 -3 -4 12 -29 33 -55
l38 -47 -47 33 c-25 18 -51 30 -57 27 -7 -5 -11 -50 -11 -119 -1 -129 -11
-125 -30 11 -9 62 -18 96 -27 99 -8 3 -31 -11 -54 -33 -47 -46 -51 -37 -8 17
48 61 38 68 -93 71 l-113 3 113 19 c129 21 134 27 75 90 -39 40 -31 40 24 -2
55 -41 63 -28 64 100 0 62 2 109 4 103 3 -5 11 -55 20 -110z m-680 -2670 c0
-26 -49 -49 -151 -70 -168 -35 -244 -30 -244 14 0 36 27 44 163 52 73 4 143
12 157 18 39 16 75 10 75 -14z m-880 -11 c85 -14 204 -26 273 -28 124 -4 150
-11 139 -40 -18 -46 -297 -71 -463 -42 -102 17 -170 43 -197 74 -21 23 -16 39
17 52 34 14 72 11 231 -16z"/>
<path d="M1402 3522 c-138 -74 -215 -281 -137 -366 50 -54 128 -42 206 31 70
65 104 140 104 226 0 65 -2 70 -33 98 -38 34 -89 39 -140 11z"/>
<path d="M1862 3258 c-96 -101 -71 -235 29 -151 54 46 86 142 57 171 -21 21
-53 13 -86 -20z"/>
</g>
</svg>
