<?xml version="1.0" standalone="no"?>
<!DOCTYPE svg PUBLIC "-//W3C//DTD SVG 20010904//EN"
 "http://www.w3.org/TR/2001/REC-SVG-20010904/DTD/svg10.dtd">
<svg version="1.0" xmlns="http://www.w3.org/2000/svg"
 width="512.000000pt" height="512.000000pt" viewBox="0 0 512.000000 512.000000"
 preserveAspectRatio="xMidYMid meet">

<g transform="translate(0.000000,512.000000) scale(0.100000,-0.100000)"
fill="#000000" stroke="none">
<path d="M2921 4940 c-2 -44 -47 -125 -91 -163 -24 -20 -66 -44 -94 -53 l-50
-17 43 -13 c91 -27 174 -114 188 -198 l6 -40 15 49 c27 95 99 167 189 190 l46
12 -44 12 c-93 26 -168 102 -194 197 -9 32 -14 41 -14 24z"/>
<path d="M1091 4810 c-1 -20 -10 -69 -22 -110 -73 -264 -295 -473 -553 -522
-36 -7 -66 -15 -66 -18 0 -3 30 -11 67 -18 256 -49 480 -260 552 -522 12 -41
21 -90 22 -110 1 -24 6 -8 19 50 49 237 187 418 395 523 63 31 178 67 216 67
16 0 29 5 29 10 0 6 -12 10 -26 10 -45 0 -117 22 -199 60 -225 104 -362 280
-415 530 -13 59 -18 74 -19 50z"/>
<path d="M2635 3595 c-452 -74 -826 -344 -1025 -742 -87 -175 -126 -326 -144
-560 -11 -156 -13 -167 -36 -185 -28 -23 -73 -21 -169 6 -89 26 -220 39 -310
32 -255 -19 -462 -110 -639 -280 -378 -363 -415 -943 -86 -1354 131 -164 315
-283 532 -345 l77 -22 1765 -3 c1327 -3 1782 0 1835 9 331 56 598 314 666 644
24 115 21 265 -6 370 -41 154 -154 328 -281 433 l-54 44 -93 -88 c-393 -375
-947 -504 -1461 -338 -331 106 -628 344 -807 644 -35 59 -40 75 -35 105 8 40
47 75 85 75 15 0 63 -18 108 -39 293 -142 652 -162 971 -55 228 76 451 240
604 443 l55 73 -14 67 c-20 97 -50 184 -102 296 -182 387 -536 666 -959 755
-130 28 -356 35 -477 15z"/>
<path d="M4524 3530 c35 -151 40 -205 40 -380 0 -153 -4 -203 -22 -287 -96
-445 -383 -818 -777 -1013 -139 -69 -229 -100 -375 -131 -139 -29 -392 -32
-525 -6 -49 10 -103 20 -120 23 -27 5 -24 -1 43 -65 156 -150 350 -254 587
-313 76 -19 118 -22 270 -23 195 0 263 9 407 56 181 59 342 155 482 289 263
252 398 562 399 915 0 349 -123 657 -361 904 -44 46 -53 52 -48 31z"/>
</g>
</svg>
