<?xml version="1.0" standalone="no"?>
<!DOCTYPE svg PUBLIC "-//W3C//DTD SVG 20010904//EN"
 "http://www.w3.org/TR/2001/REC-SVG-20010904/DTD/svg10.dtd">
<svg version="1.0" xmlns="http://www.w3.org/2000/svg"
 width="512.000000pt" height="512.000000pt" viewBox="0 0 512.000000 512.000000"
 preserveAspectRatio="xMidYMid meet">

<g transform="translate(0.000000,512.000000) scale(0.100000,-0.100000)"
fill="#000000" stroke="none">
<path d="M1509 3557 c-87 -33 -147 -87 -179 -162 -27 -64 -40 -70 -102 -49
-115 39 -241 11 -323 -72 -50 -51 -75 -109 -84 -195 -4 -39 -13 -74 -20 -79
-7 -4 -35 -10 -61 -13 -226 -27 -311 -314 -137 -462 62 -54 115 -65 303 -65
l161 0 44 40 c54 49 138 94 206 110 l51 12 7 51 c28 208 192 386 393 428 54
11 192 8 252 -6 22 -5 28 0 48 37 27 51 77 107 137 153 l45 33 -48 23 c-59 29
-176 32 -236 6 -22 -10 -47 -15 -56 -12 -9 3 -28 29 -42 58 -36 73 -68 108
-129 142 -63 34 -171 44 -230 22z"/>
<path d="M2369 3262 c-109 -36 -195 -116 -244 -226 -14 -31 -32 -59 -40 -63
-9 -3 -35 2 -59 11 -109 42 -233 38 -331 -9 -136 -65 -214 -187 -231 -357 -4
-37 -12 -72 -18 -77 -7 -6 -43 -15 -81 -21 -124 -20 -219 -92 -273 -208 -23
-49 -27 -70 -27 -147 1 -77 5 -98 29 -147 35 -73 100 -139 174 -175 l57 -28
501 -3 501 -3 6 51 c17 140 127 266 264 301 41 11 42 13 54 68 25 126 106 227
227 284 58 27 78 31 152 32 47 0 97 -3 112 -8 22 -6 28 -3 33 13 4 11 31 47
60 79 58 62 143 109 216 118 22 3 39 8 39 12 0 21 -65 113 -105 150 -72 66
-143 94 -250 99 -73 3 -102 0 -153 -17 -35 -12 -72 -19 -81 -16 -10 3 -30 32
-45 66 -40 85 -113 162 -193 201 -56 27 -78 32 -152 35 -63 2 -101 -2 -142
-15z"/>
<path d="M3438 2647 c-88 -25 -158 -91 -198 -187 -16 -39 -40 -45 -101 -25
-68 23 -178 16 -235 -13 -93 -47 -164 -163 -164 -264 0 -60 -12 -74 -71 -82
-68 -9 -107 -26 -154 -67 -114 -100 -113 -287 2 -390 81 -74 25 -70 1018 -67
857 3 891 4 929 22 93 47 146 131 146 236 0 143 -92 243 -242 265 -26 4 -51
12 -56 19 -5 6 -12 39 -15 74 -17 201 -202 326 -397 267 -32 -10 -65 -15 -74
-12 -8 3 -27 31 -41 61 -61 129 -213 200 -347 163z"/>
</g>
</svg>
